# xmcd
#
# Track frame offsets: 
#        150
#        10535
#        23047
#        35872
#        44775
#        55295
#        67655
#        78820
#        89932
#        103982
#        114757
#        124837
#
# Disc length: 1791 seconds
#
# Revision: 4
# Processed by: cddbd v1.5.2PL0 Copyright (c) Steve Scherf et al.
# Submitted via: ExactAudioCopy v1.0b4
#
DISCID=9b06fd0c
DTITLE=Clifton Chenier - Bayou Blues
DYEAR=1970
DGENRE=Cajun, Zydeco, Blues
TTITLE0=Boppin' The Rock
TTITLE1=The Things I Did For You
TTITLE2=Yesterday
TTITLE3=Clifton's Squeeze-box Boogie
TTITLE4=I'm On My Way - Part 1
TTITLE5=Eh, Petite Fille
TTITLE6=All Night Long
TTITLE7=Opelousas Hop
TTITLE8=I'm On My Way - Part 2
TTITLE9=Think It Over
TTITLE10=Zodico Stomp
TTITLE11=The Cat's Dreamin'
EXTD=
EXTT0=
EXTT1=
EXTT2=
EXTT3=
EXTT4=
EXTT5=
EXTT6=
EXTT7=
EXTT8=
EXTT9=
EXTT10=
EXTT11=
PLAYORDER=
